<svg>
  <symbol version="1.0" id="icon-facebook" xmlns="http://www.w3.org/2000/svg" xmlns:xlink="http://www.w3.org/1999/xlink" x="0px" y="0px" width="9px" height="19px" viewBox="0 0 9 19" enable-background="new 0 0 8.672 18.944" xml:space="preserve">
    <path d="M6.275,3.356c0.799,0,1.599,0,2.398,0c0-1.119,0-2.237,0-3.356c-0.959,0-1.92,0-2.878,0C2.656,0.181,1.54,2.387,1.948,6.114 H0v3.518h1.959c0,3.104,0,6.208,0,9.312c1.279,0,2.559,0,3.837,0c0-3.104,0-6.208,0-9.312h2.857V6.114H5.787 C5.765,5.069,5.75,3.709,6.275,3.356z"/>
  </symbol>
  <symbol version="1.0" id="icon-twitter" xmlns="http://www.w3.org/2000/svg" xmlns:xlink="http://www.w3.org/1999/xlink" x="0px" y="0px" width="17px" height="15px" viewBox="0 0 17 15" enable-background="new 0 0 17.5 14.663" xml:space="preserve">
      <path fill-rule="evenodd" clip-rule="evenodd" d="M11.283,0.153c1.736-0.484,3.074,0.264,3.685,1.15 c0.694-0.225,1.372-0.47,2.072-0.69c-0.004,0.841-0.538,1.478-0.883,1.728C16.861,2.506,17.5,1.86,17.5,1.86 c-0.175,0.977-1.035,1.746-1.611,1.977C15.65,10.429,12.617,14.793,5.507,14.66c-0.538,0,0.077,0-0.46,0 c-0.422,0-4.29-0.45-5.047-1.843c2.341,0.192,4.011-0.412,4.835-1.15c-0.989-0.293-2.761-0.464-3.07-2.881 c0.362,0.105,0.583,0.223,1.228,0.117C1.757,8.067,0.385,7.366,0.461,5.218c0.294,0.319,1.1,0.523,1.381,0.461 c-0.725-0.235-2.03-3.281-0.921-4.836C2.794,2.655,4.769,4.364,8.29,4.528C8.506,2.288,9.461,0.788,11.283,0.153z"/>
  </symbol>
  <symbol version="1.0" id="icon-pinterest" xmlns="http://www.w3.org/2000/svg" xmlns:xlink="http://www.w3.org/1999/xlink" x="0px" y="0px" width="24px" height="24px" viewBox="0 0 24 24" enable-background="new 0 0 17.5 14.663" xml:space="preserve">
      <path d="M12 0c-6.627 0-12 5.372-12 12 0 5.084 3.163 9.426 7.627 11.174-.105-.949-.2-2.405.042-3.441.218-.937 1.407-5.965 1.407-5.965s-.359-.719-.359-1.782c0-1.668.967-2.914 2.171-2.914 1.023 0 1.518.769 1.518 1.69 0 1.029-.655 2.568-.994 3.995-.283
      1.194.599 2.169 1.777 2.169 2.133 0 3.772-2.249 3.772-5.495 0-2.873-2.064-4.882-5.012-4.882-3.414 0-5.418 2.561-5.418 5.207
      0 1.031.397 2.138.893 2.738.098.119.112.224.083.345l-.333 1.36c-.053.22-.174.267-.402.161-1.499-.698-2.436-2.889-2.436-4.649
      0-3.785 2.75-7.262 7.929-7.262 4.163 0 7.398 2.967 7.398 6.931 0 4.136-2.607 7.464-6.227 7.464-1.216 0-2.359-.631-2.75-1.378l-.748
      2.853c-.271 1.043-1.002 2.35-1.492 3.146 1.124.347 2.317.535 3.554.535 6.627
      0 12-5.373 12-12 0-6.628-5.373-12-12-12z" fill-rule="evenodd" clip-rule="evenodd"/>
  </symbol>
  <symbol version="1.1" id="icon-google" xmlns="http://www.w3.org/2000/svg" xmlns:xlink="http://www.w3.org/1999/xlink" x="0px" y="0px" viewBox="0 0 1000 1000" enable-background="new 0 0 1000 1000" xml:space="preserve">
                <g transform="translate(0, 10) scale(0.00470000,-0.00470000)"><path d="M2629.3,1419.5C1590.1,1241.7,839.3,656.9,649.6-133.4c-67.2-280.6-67.2-790.3,0-1066.9c189.7-774.5,881.2-1260.5,1794-1264.5h264.8v-296.4c0-276.6,7.9-300.3,114.6-399.1c118.5-102.8,229.2-316.1,189.7-355.6c-11.9-15.8-217.3-39.5-450.5-59.3c-1228.9-94.9-2011.3-462.3-2323.4-1090.6c-146.2-292.4-181.8-825.8-83-1161.7c181.8-628.3,802.2-1066.9,1738.6-1225c410.9-71.2,1351.4-27.7,1754.4,79c932.5,245,1509.5,762.6,1687.3,1513.4c185.7,786.3-39.5,1402.8-735,2011.3c-162,138.3-410.9,371.5-557.2,513.7c-391.2,379.4-367.5,513.7,173.9,983.9c410.9,355.6,600.6,608.5,703.3,936.5c134.4,434.7,94.8,1213.1-79,1552.9c-67.2,134.3-288.4,355.6-458.4,462.3c-63.2,39.5-67.2,51.4-15.8,86.9c31.6,23.7,158.1,51.4,276.6,67.2c462.3,51.4,750.8,150.1,750.8,252.9C5395.3,1447.2,2846.7,1455.1,2629.3,1419.5z M2858.5,992.8c600.6-177.8,1138-1142,1055-1892.7c-75.1-675.7-438.6-1090.6-952.3-1090.6c-434.7,0-853.5,316.1-1102.5,833.8c-173.9,367.5-229.2,644.1-209.4,1062.9c19.8,407,154.1,723.1,387.2,916.7C2301.4,1048.1,2518.7,1091.6,2858.5,992.8z M3482.9-3966.3c683.6-173.9,1161.7-655.9,1161.7-1165.7c0-608.5-608.5-1177.5-1430.4-1343.5c-383.3-75.1-513.7-75.1-893,3.9c-411,83-699.4,229.2-944.4,482.1C373-4977.9,1858.8-3551.4,3482.9-3966.3z"/><path d="M7726.7,617.4v-829.8h-829.8h-829.8v-237.1v-237.1h829.8h829.8v-829.8v-829.8h256.8h256.8v829.8v829.8h829.8H9900v237.1v237.1h-829.8h-829.8v829.8v829.8h-256.8h-256.8V617.4z"/></g>
                </symbol>
</svg>

